<?xml version="1.0" encoding="utf-8"?>
<!-- Generator: Adobe Illustrator 17.0.0, SVG Export Plug-In . SVG Version: 6.00 Build 0)  -->
<!DOCTYPE svg PUBLIC "-//W3C//DTD SVG 1.1//EN" "http://www.w3.org/Graphics/SVG/1.1/DTD/svg11.dtd">
<svg version="1.1" id="Capa_1" xmlns="http://www.w3.org/2000/svg" xmlns:xlink="http://www.w3.org/1999/xlink" x="0px" y="0px"
	 width="614.799px" height="139.607px" viewBox="0 0 614.799 139.607" enable-background="new 0 0 614.799 139.607"
	 xml:space="preserve">
<g>
	<defs>
		<path id="SVGID_1_" d="M1.4,4.485v135.122h556.224c7.48-1.383,12.397-9.096,10.016-16.692L533.371,13.607
			c-1.703-5.428-6.732-9.122-12.421-9.122H1.4z"/>
	</defs>
	<clipPath id="SVGID_2_">
		<use xlink:href="#SVGID_1_"  overflow="visible"/>
	</clipPath>
	
		<linearGradient id="SVGID_3_" gradientUnits="userSpaceOnUse" x1="-28.5686" y1="768.1674" x2="-27.5686" y2="768.1674" gradientTransform="matrix(0 161.0478 161.0478 0 -123425.9375 4583.9463)">
		<stop  offset="0" style="stop-color:#AFB9C6"/>
		<stop  offset="0.0206" style="stop-color:#B6C0CC"/>
		<stop  offset="0.0953" style="stop-color:#CED5DD"/>
		<stop  offset="0.1807" style="stop-color:#E2E6EA"/>
		<stop  offset="0.2796" style="stop-color:#F0F3F5"/>
		<stop  offset="0.4007" style="stop-color:#FAFBFC"/>
		<stop  offset="0.5677" style="stop-color:#FEFFFF"/>
		<stop  offset="1" style="stop-color:#FFFFFF"/>
	</linearGradient>
	<rect x="1.4" y="4.485" clip-path="url(#SVGID_2_)" fill="url(#SVGID_3_)" width="568.621" height="135.122"/>
</g>
<g>
	<defs>
		<path id="SVGID_4_" d="M384.805,25.477c-8.607,0-16.39,5.119-19.8,13.022l-26.932,62.419c-3.41,7.902-11.193,13.021-19.8,13.021
			H195.544c-8.945,0-17.431,3.947-23.193,10.787l-12.536,14.881H613.4V25.477H384.805z"/>
	</defs>
	<clipPath id="SVGID_5_">
		<use xlink:href="#SVGID_4_"  overflow="visible"/>
	</clipPath>
	
		<linearGradient id="SVGID_6_" gradientUnits="userSpaceOnUse" x1="-29.6716" y1="768.2083" x2="-28.6716" y2="768.2083" gradientTransform="matrix(0 125.5542 125.5542 0 -96065.1563 3739.4834)">
		<stop  offset="0" style="stop-color:#4E82BF"/>
		<stop  offset="0.4609" style="stop-color:#2E498E"/>
		<stop  offset="1" style="stop-color:#1B3258"/>
	</linearGradient>
	<rect x="159.815" y="25.477" clip-path="url(#SVGID_5_)" fill="url(#SVGID_6_)" width="453.585" height="114.13"/>
</g>
</svg>
