<?xml version="1.0" encoding="utf-8"?>
<!-- Generator: Adobe Illustrator 17.0.0, SVG Export Plug-In . SVG Version: 6.00 Build 0)  -->
<!DOCTYPE svg PUBLIC "-//W3C//DTD SVG 1.1//EN" "http://www.w3.org/Graphics/SVG/1.1/DTD/svg11.dtd">
<svg version="1.1" id="Capa_1" xmlns="http://www.w3.org/2000/svg" xmlns:xlink="http://www.w3.org/1999/xlink" x="0px" y="0px"
	 width="24px" height="23.094px" viewBox="0 0 24 23.094" enable-background="new 0 0 24 23.094" xml:space="preserve">
<circle fill="none" stroke="#919191" stroke-width="0.643" stroke-miterlimit="10" cx="12.824" cy="11.719" r="9.339"/>
<path fill="none" stroke="#BE2C2B" stroke-width="0.643" stroke-linecap="round" stroke-miterlimit="10" d="M12.824,0.543
	C18.997,0.543,24,5.546,24,11.719c0,6.173-5.003,11.176-11.176,11.176c-6.173,0-11.176-5.003-11.176-11.176"/>
<path fill="#BE2C2B" d="M19.589,15.159c-0.042-0.214-0.131-0.409-0.24-0.597c-1.827-3.165-3.653-6.329-5.482-9.493
	c-0.06-0.105-0.13-0.205-0.204-0.301c-0.097-0.127-0.216-0.234-0.355-0.317c-0.314-0.185-0.633-0.193-0.95-0.008
	c-0.092,0.054-0.177,0.124-0.256,0.196c-0.146,0.135-0.25,0.302-0.348,0.474c-1.556,2.694-3.112,5.39-4.668,8.085
	c-0.276,0.478-0.552,0.957-0.828,1.436c-0.108,0.188-0.184,0.389-0.213,0.606c-0.055,0.418,0.109,0.771,0.476,0.971
	c0.059,0.033,0.122,0.059,0.185,0.081c0.208,0.076,0.424,0.096,0.644,0.096c1.824,0,3.648,0,5.471,0c1.811,0,3.621,0,5.432,0
	c0.116-0.001,0.231-0.005,0.347-0.017c0.192-0.02,0.376-0.072,0.544-0.168c0.231-0.134,0.385-0.326,0.446-0.589
	C19.625,15.464,19.619,15.312,19.589,15.159 M7.643,15.012c-0.009-0.035,0.017-0.059,0.033-0.085
	c0.213-0.372,0.427-0.743,0.641-1.114c1.485-2.571,2.969-5.141,4.454-7.712c0.014-0.025,0.03-0.05,0.055-0.091
	c1.735,3.006,3.462,5.998,5.19,8.993C17.946,15.021,7.807,15.028,7.643,15.012 M11.875,9.532l0.184,1.91
	c0.038,0.389,0.365,0.686,0.756,0.686c0.389,0,0.716-0.294,0.756-0.681l0.197-1.911c0.046-0.448-0.306-0.838-0.757-0.837L12.629,8.7
	C12.181,8.7,11.831,9.087,11.875,9.532 M12.829,12.602c-0.401,0-0.724,0.325-0.724,0.724c0,0.401,0.323,0.725,0.724,0.725
	c0.401,0,0.724-0.325,0.724-0.725C13.553,12.927,13.23,12.602,12.829,12.602"/>
</svg>
