<?xml version="1.0" encoding="utf-8"?>
<!-- Generator: Adobe Illustrator 17.0.0, SVG Export Plug-In . SVG Version: 6.00 Build 0)  -->
<!DOCTYPE svg PUBLIC "-//W3C//DTD SVG 1.1//EN" "http://www.w3.org/Graphics/SVG/1.1/DTD/svg11.dtd">
<svg version="1.1" id="Capa_1" xmlns="http://www.w3.org/2000/svg" xmlns:xlink="http://www.w3.org/1999/xlink" x="0px" y="0px"
	 width="24px" height="23.094px" viewBox="0 0 24 23.094" enable-background="new 0 0 24 23.094" xml:space="preserve">
<g>
	<defs>
		<path id="SVGID_1_" d="M20.899,11.763L20.899,11.763 M12.739,19.921c-4.504,0-8.156-3.653-8.156-8.158
			C4.583,16.268,8.236,19.921,12.739,19.921c4.507,0,8.16-3.653,8.16-8.158C20.899,16.268,17.246,19.921,12.739,19.921
			 M20.899,11.763L20.899,11.763 M4.583,11.763c0-4.505,3.653-8.158,8.156-8.158c4.507,0,8.16,3.653,8.16,8.158
			c0-4.505-3.653-8.158-8.16-8.158C8.236,3.604,4.583,7.257,4.583,11.763"/>
	</defs>
	<clipPath id="SVGID_2_">
		<use xlink:href="#SVGID_1_"  overflow="visible"/>
	</clipPath>
	
		<linearGradient id="SVGID_3_" gradientUnits="userSpaceOnUse" x1="-236.5617" y1="617.7223" x2="-234.771" y2="617.7223" gradientTransform="matrix(9.6112 0 0 9.6112 2277.7888 -5925.3203)">
		<stop  offset="0" style="stop-color:#871A1D"/>
		<stop  offset="0.0034" style="stop-color:#871A1D"/>
		<stop  offset="0.9993" style="stop-color:#C12A24"/>
		<stop  offset="1" style="stop-color:#C12A24"/>
	</linearGradient>
	<rect x="4.583" y="3.604" clip-path="url(#SVGID_2_)" fill="url(#SVGID_3_)" width="16.317" height="16.317"/>
</g>
<g>
	<defs>
		<path id="SVGID_4_" d="M12.741,21.525c-5.392,0-9.763-4.371-9.763-9.763C2.978,17.154,7.349,21.525,12.741,21.525
			c5.392,0,9.759-4.371,9.759-9.763C22.5,17.154,18.133,21.525,12.741,21.525 M22.5,11.763C22.5,6.371,18.133,2,12.741,2
			C18.133,2,22.5,6.371,22.5,11.763"/>
	</defs>
	<clipPath id="SVGID_5_">
		<use xlink:href="#SVGID_4_"  overflow="visible"/>
	</clipPath>
	
		<linearGradient id="SVGID_6_" gradientUnits="userSpaceOnUse" x1="-240.3137" y1="622.3688" x2="-238.523" y2="622.3688" gradientTransform="matrix(11.5011 0 0 11.5011 2766.3152 -7146.1631)">
		<stop  offset="0" style="stop-color:#C12A24"/>
		<stop  offset="6.820440e-004" style="stop-color:#C12A24"/>
		<stop  offset="0.9966" style="stop-color:#871A1D"/>
		<stop  offset="1" style="stop-color:#871A1D"/>
	</linearGradient>
	<rect x="2.978" y="2" clip-path="url(#SVGID_5_)" fill="url(#SVGID_6_)" width="19.522" height="19.525"/>
</g>
</svg>
