<svg xmlns="http://www.w3.org/2000/svg" xmlns:xlink="http://www.w3.org/1999/xlink" version="1.1" id="Layer_1" x="0px" y="0px" viewBox="0 0 512 512" style="enable-background:new 0 0 512 512;" xml:space="preserve">
<circle style="fill: transparent;" cx="255.996" cy="255.997" r="255.996" id="id_107"></circle>
<path style="fill: transparent;" d="M512,256c0-7.63-0.353-15.175-1.007-22.635l-62.722-62.722  c-22.096-23.53-53.441-38.287-88.068-38.287H146.339c-66.503,0-120.915,54.411-120.915,120.915l0,0  c0,34.627,14.757,65.971,38.287,88.068l163.206,163.206c2.097,2.233,4.279,4.386,6.538,6.456c7.431,0.649,14.947,0.999,22.546,0.999  C397.385,512,512,397.385,512,256z" id="id_108"></path>
<path style="fill:#43B254;" d="M360.201,374.186H146.339c-66.503,0-120.915-54.411-120.915-120.915l0,0  c0-66.503,54.411-120.915,120.915-120.915h213.864c66.503,0,120.915,54.411,120.915,120.915l0,0  C481.116,319.774,426.705,374.186,360.201,374.186z" id="id_109"></path>
<circle style="fill: white;" cx="150.16" cy="253.27" r="89.567" id="id_110"></circle>
<circle style="fill:#148C26;" cx="150.16" cy="253.27" r="68.325" id="id_111"></circle>
<path style="fill:#148C26;" d="M360.201,132.356H253.267v241.83h106.935c66.503,0,120.915-54.411,120.915-120.915l0,0  C481.116,186.768,426.705,132.356,360.201,132.356z" id="id_112"></path>
<g>
</g>
<g>
</g>
<g>
</g>
<g>
</g>
<g>
</g>
<g>
</g>
<g>
</g>
<g>
</g>
<g>
</g>
<g>
</g>
<g>
</g>
<g>
</g>
<g>
</g>
<g>
</g>
<g>
</g>
</svg>